<?xml version="1.0" ?><svg viewBox="0 0 96 96" xmlns="http://www.w3.org/2000/svg"><title/><g data-name="Layer 2" id="Layer_2"><g data-name="Layer 2" id="Layer_2-2"><path d="M37.73,43.76a9.25,9.25,0,0,0-3.67-.85,8.26,8.26,0,0,0-5.62,2.22,8.41,8.41,0,1,0,14,6.25A8.53,8.53,0,0,0,37.73,43.76ZM34.06,56.43a5.06,5.06,0,1,1,5-5A5.05,5.05,0,0,1,34.06,56.43Z"  fill="#3E5667"/><path d="M61,48a3.36,3.36,0,1,0,3.4,3.37A3.37,3.37,0,0,0,61,48Zm0,5a1.67,1.67,0,1,1,1.7-1.67A1.69,1.69,0,0,1,61,53Z"  fill="#3E5667" /><path d="M34.06,48a3.36,3.36,0,1,0,3.37,3.37A3.39,3.39,0,0,0,34.06,48Zm0,5a1.67,1.67,0,1,1,1.7-1.67A1.69,1.69,0,0,1,34.06,53Z"  fill="#3E5667"/><path d="M61,39.57a20.44,20.44,0,0,0-27,0c2.82,0,5.7,1.53,8,3.92a18.93,18.93,0,0,1,5.43,12.94,19.25,19.25,0,0,1,5.4-12.91A11.64,11.64,0,0,1,61,39.57Z"  fill="#3E5667"/><path d="M61,42.91a8.47,8.47,0,1,0,5.84,2.39A8.41,8.41,0,0,0,61,42.91Zm0,13.52a5.06,5.06,0,1,1,5-5A5.05,5.05,0,0,1,61,56.43Z"  fill="#3E5667"/><path d="M48,0A48,48,0,1,0,96,48,48,48,0,0,0,48,0ZM71.43,46.37a12.26,12.26,0,0,1,1.4,5c0,6.94-4.88,11.76-11.82,11.76a13.74,13.74,0,0,1-10.12-5l-3.37,5-3.35-5a13.74,13.74,0,0,1-10.12,5c-6.94,0-11.82-4.83-11.82-11.76a12.33,12.33,0,0,1,1.48-5.24,21.94,21.94,0,0,1,1.92-3.24c-3.4-.79-3.4-3.34-3.4-3.34h8.42c5.1-5.07,10.12-6.77,16.86-6.77s11.79,1.7,16.89,6.77h8.42s0,2.55-3.4,3.34A21.25,21.25,0,0,1,71.43,46.37Z" fill="#3E5667" /></g></g></svg>