<svg xmlns="http://www.w3.org/2000/svg" viewBox="0 0 571 533">
  <path fill="#dbd5cd" fill-rule="evenodd" d="M494 525.7c-.3 8.4-11.8 8.7-16 2.5l1.7-1.4a8 8 0 0 0 6.8 3.6c2.6 0 5.3-1.8 5.3-4.7 0-6.9-12.6-5.1-12.7-12.7.2-7.7 9.7-8.3 13.8-4.2l-1.4 1.6c-1.5-1.3-3-2-5-2-2.9 0-5.2 1.7-5.2 4.5 0 5.9 12.6 4.3 12.7 12.8Zm-34.5 4.4h12v2h-14.2v-25.5H471v2.1h-11.6v8.3h9v2.1h-9v11Zm-11.4-3.7 1.5 1.4c-7.5 9.3-23.3 4-23-8.4a12.8 12.8 0 0 1 22.1-9.2l-1.5 1.5c-6.6-7-18.5-2.3-18.4 7.7a10.9 10.9 0 0 0 19.3 7Zm-31.9-19.8h2.2v25.5H417L399.8 511v21.2h-2.1v-25.5h1.4l17.1 21.3v-21.3Zm-39 23.5h12v2H375v-25.5h14v2.1h-11.7v8.3h9.1v2.1h-9v11Zm-16.6-2.2a12 12 0 0 1-7.8 2.2h-5v-21.4h5c3.6 0 6 .7 7.8 2.2 5.3 3.9 5.3 13.1 0 17Zm1.1-18.9a14 14 0 0 0-8.7-2.4h-7.3v25.5h7.3c4 0 6.7-.8 8.7-2.4a13.1 13.1 0 0 0 0-20.7Zm-28.4 23.1h2.1v-25.5h-2.1v25.5Zm-8.4-6.5c-.3 8.5-11.8 8.8-16 2.6l1.7-1.4a8 8 0 0 0 6.8 3.6c2.6 0 5.3-1.8 5.3-4.8 0-6.8-12.6-5-12.7-12.6.2-7.7 9.8-8.3 13.8-4.2l-1.4 1.6c-1.5-1.3-3-2-5-2-2.9 0-5.2 1.7-5.2 4.5 0 5.9 12.6 4.2 12.7 12.7Zm-34.5 4.5h12v2h-14.2v-25.5H302v2.1h-11.7v8.3h9.1v2.1h-9.1v11Zm-26.1-13v-8.4h6.4c3.1 0 4.7 1.5 4.9 4.2-.2 2.7-1.8 4.1-4.9 4.1h-6.4Zm11.5.3c2.6-2.2 2.6-7 0-9.1a7 7 0 0 0-5-1.7h-8.7v25.5h2.2v-13h4.3l9.8 13h2.7l-9.9-13c2.1 0 3.5-.7 4.6-1.7ZM229 530.5c-4.2 0-7-2.6-7-5.7 0-2.5 1.6-4.4 4.4-6.2l9.2 8.9a8 8 0 0 1-6.6 3Zm-5.1-19c0-2 1.4-3.3 3.2-3.3s3.3 1.3 3.3 3.2c0 2-2 3.5-3.8 4.7-1.3-1.2-2.7-2.9-2.7-4.7Zm15.9 10c0-1.8-.3-3.6-.6-4.8l-2 .5c.5 2 .9 6.2-.5 8.6l-8.6-8.3c2.2-1.4 4.4-3.3 4.4-6s-2-5.2-5.4-5.2-5.3 2.4-5.3 5.1c0 2.1 1.3 4 3 5.8-2.6 1.6-5 4-5 7.6.2 8.4 12.7 10 17.3 4l3.4 3.3h3l-5.2-4.9a12 12 0 0 0 1.5-5.7ZM191 530h12v2h-14v-25.5h2.2V530Zm-22.6 0h12v2h-14.2v-25.5h13.9v2.1h-11.7v8.3h9.1v2.1h-9v11ZM142 506.6h16.8v2.1h-7.3v23.5h-2.2v-23.5H142v-2Zm-17.3 23.8c-6.1 0-10.5-5-10.5-11a10.5 10.5 0 0 1 21 0c0 6-4.3 11-10.4 11Zm0-24.1c-7.2 0-12.6 5.7-12.6 13 .3 17.5 25 17.5 25.3 0 0-7.3-5.4-13-12.7-13Zm-23 .3h2.1v25.5h-2.1v-13H85v13h-2v-25.5h2V517h16.5v-10.4ZM570.9 472v1.1h-16.5V472c2.6 0 5.6.4 5.4-3l-1.2-35.5-15.4 39.6h-.6l-15.8-37.8-1.2 31.1c-.3 5.6 1.6 5.7 5.9 5.6v1.1h-14.1V472c3.9.1 5.8-.1 6-5.6l1.3-32.3c.2-3.5-3-4.3-5.3-4.3v-1.2h11.3l14.1 34.7 13.2-34.7h11.5v1.2c-2.3 0-5.3.8-5.2 4.3l1.2 34.9c0 3.5 2.7 3 5.4 3Zm-69.7-43.4h14.3v1.2c-4-.2-6 .4-6 5.4V456c0 11-6.6 17.9-17.3 17.9s-17.5-6.5-17.5-17.6v-23.5c.2-3.5-2.7-3-5.4-3v-1.2h16.5v1.2c-2.6 0-5.5-.5-5.4 3v24c0 8.5 5.2 14.2 13 14.2 9 0 13.8-6.1 13.8-15.1V435c.1-5.4-1.7-5.5-6-5.4v-1.2ZM434.4 469v-36.2c.1-3.5-2.8-3-5.4-3v-1.2h32.6v9.3h-.6c-.8-5-3.7-7.3-10.4-7.3H440v18h7.1c3.7 0 7.2-.5 8-5.6h.6v13h-.6c-.8-5.2-4.3-5.6-8-5.6h-7v17.8c0 2.4 1.4 3 3.4 3h10c5.7 0 8.7-3 9.5-8.2h.5v10.2H429V472c2.6 0 5.5.5 5.4-3Zm-38.8-15.5 6.9-16.7 6.7 16.7h-13.6Zm25.8 15.3-16.8-41.5h-.7l-15.4 38c-2.5 6.1-3.8 6.7-7.4 6.7v1.1h13V472c-4.4 0-6.1-.3-3-7.5l3-7.3h16.6l4.9 12.1c1 2.7-2 2.8-4 2.7v1.1H427V472h-1.3c-2.2 0-3.5-1.2-4.4-3.2Zm-42.2-39c-3.1 0-4.3 1.6-4.3 5.4v38.7h-.5l-31.9-37.6v30.2c0 5.5 1.8 5.6 6 5.5v1.1h-14.2V472c3.9.2 6-.4 6-5.4v-32c0-3.4-3.7-4.8-6-4.8v-1.2h10l28.3 34.3V435c0-5.4-1.8-5.5-6-5.4v-1.2h14.2v1.2h-1.6ZM325.6 463h.5v10h-34.6v-1c2.7 0 5.6.4 5.4-3v-36.2c.2-3.5-2.7-3-5.4-3v-1.2h32.6v9.3h-.5c-.8-5-3.8-7.2-10.4-7.2h-10.6v17.8h7c3.8 0 7.3-.3 8.1-5.5h.6v13h-.6c-.9-5.2-4.3-5.6-8-5.6h-7.1v17.9c0 2.4 1.4 2.8 3.5 2.8h10c5.7 0 8.7-2.8 9.5-8Zm-58.7-34.4h16.5v1.2c-2.7 0-5.6-.5-5.4 3V469c-.2 3.4 2.7 3 5.4 3v1.1h-16.5V472c2.6 0 5.5.5 5.4-3v-18.4h-23.8V469c-.1 3.5 2.7 3 5.4 3v1.1h-16.5V472c2.7 0 5.6.4 5.4-3v-36.2c.2-3.5-2.7-3-5.4-3v-1.2H254v1.2c-2.7 0-5.5-.5-5.4 3v15.7h23.8v-15.7c.1-3.5-2.8-3-5.4-3v-1.2Zm-57.2 39.9v-37.8c-7.3.2-15-2-16.4 7.5h-.5v-9.6h39.5v9.6h-.6c-1.4-9.4-9-7.3-16.3-7.5v37.8c-.2 4.3 3.2 3.4 6.4 3.5v1.1h-18.6V472c3.3 0 6.7.7 6.5-3.5Zm-45.7-15 6.9-16.7 6.7 16.7H164Zm17.1 18.5H180v1.1h15.6V472h-1.3c-2.2 0-3.5-1.2-4.3-3.2l-17-41.6h-.7l-15.4 38c-2.5 6.1-3.8 6.7-7.4 6.7v1.1h13v-1c-4.4 0-6-.3-3-7.5l3-7.3H179l4.9 12.1c.8 2-.7 2.7-2.9 2.7Zm-49.9 1.1H96.7V472c2.6 0 5.5.4 5.4-3v-36.2c.1-3.5-2.8-3-5.4-3v-1.2h32.6v9.3h-.6c-.8-5-3.7-7.2-10.4-7.2h-10.6v17.8h7.1c3.7 0 7.2-.4 8-5.5h.6v13h-.6c-.8-5.2-4.3-5.6-8-5.6h-7v17.8c0 2.4 1.3 3 3.4 3h10c5.7 0 8.7-3 9.5-8.2h.5v10.2ZM79.6 469v-18.4H55.8V469c-.1 3.5 2.8 3 5.4 3v1.1H44.7V472c2.7 0 5.6.4 5.4-3v-36.2c.2-3.5-2.7-3-5.4-3v-1.2h16.5v1.2c-2.7 0-5.5-.5-5.4 3v15.7h23.8v-15.7c.1-3.5-2.7-3-5.4-3v-1.2h16.5v1.2c-2.7 0-5.6-.5-5.4 3V469c-.2 3.4 2.7 3 5.4 3v1.1H74.2V472c2.6 0 5.5.4 5.4-3ZM0 428.6h39.5v9.5H39c-1.4-9.4-9-7.3-16.4-7.5v37.8c-.2 4.3 3.3 3.4 6.5 3.5v1.2H10.5v-1.2c3.3 0 6.7.7 6.5-3.5v-37.8c-7.4.2-15-2-16.4 7.5H.1v-9.6ZM433.3 345l.2.1-.2-.1Zm-2.6-1.2 1 .4-1-.4Zm1.4.7.6.2-.6-.2Zm10.2-.8c-16-7.8-25.9-23.9-35.9-45.9l-42.7-98.6c.1 0 13.6 0 24.7.2 35.7.7 78 20.2 84 69.5 3.6 31-7.4 62-30.1 74.8m33.9-70.5c-3.2-52.4-45.7-76.7-87.6-77.6l-26.6-.3L277.5.2l-38 85 42.7 110.1c-30.7-1.4-70.5 1.2-94.5 16.6C146 236 120 284.3 141.5 330.5a56.3 56.3 0 0 0 61.8 28.6c23.5-4.7 41.2-26.4 50.8-46.8-44.5 0-59.6-31-59.6-55.3 1.1-55.2 58.7-59 89.2-57.9l34.4 88.6c16.3 38.3 15.1 59.3-32.6 62.8v4.3h128.7c12.4 0 22.1-2.7 30-7.4 22.1-14 33.5-41.6 32-74.2"/>
</svg>
