<?xml version="1.0" encoding="UTF-8"?>
<svg xmlns="http://www.w3.org/2000/svg" viewBox="0 0 368 345" width="368" height="345">
  <path fill="#fff" fill-rule="evenodd" d="m277.4 222.5.6.3-.6-.3Zm-197 121.9h.1Zm42.9-1.6Zm-14.6 0Zm209.4-2.8c0 5.3-7.7 5.6-10.2 1.6l1-.9c1.5 2.7 7.6 3.6 7.8-.7 0-3-3.5-3.4-5.9-4.8-1.2-.8-2.2-1.8-2.2-3.4 0-4.8 6.5-5.4 8.9-2.7l-1 1c-1.8-2-6.5-1.7-6.5 1.6.2 3.9 8.4 3 8.1 8.3Zm-14.4 2.8v1.4h-9.2v-16.5h9v1.3H296v5.4h5.8v1.3H296v7.1h7.7Zm-14-1.4c-4.7 6-15.3 2.3-14.9-5.5-.4-7.4 9.4-11.3 14.2-6l-1 1c-4-4.5-12.1-1.3-11.8 5-.3 6.6 8.5 9.7 12.4 4.6l1 .9Zm-20.1-13.7v16.5h-1l-11-13.8v13.8h-1.4v-16.5h1l11 13.7v-13.7h1.3Zm-18.8 15.1v1.4h-9.2v-16.5h9v1.3H243v5.4h5.9v1.3H243v7.1h7.8ZM233 329.2c-2-1.8-7.4-1.5-10.4-1.5v16.5c3 0 8.4.3 10.4-1.6 4.3-3 4.3-10.4 0-13.4Zm-.7 12.2c-1.6 1.6-5.8 1.5-8.3 1.4V329c2.5 0 6.7-.2 8.3 1.4 3.4 2.5 3.4 8.5 0 11Zm-16.2-13.7v16.5h-1.4v-16.5h1.4Zm-6.8 12.3c-.1 5.3-7.7 5.6-10.3 1.6l1-.9c1.5 2.7 7.6 3.6 7.8-.7 0-3-3.5-3.4-5.9-4.8-1.2-.8-2.2-1.8-2.2-3.4 0-4.8 6.5-5.4 8.9-2.7l-1 1c-1.8-2-6.5-1.7-6.5 1.6.2 3.8 8.4 3.1 8.2 8.3Zm-14.5 2.8v1.4h-9.2v-16.5h9v1.3h-7.5v5.4h5.8v1.3h-5.8v7.1h7.7Zm-20-7c3.8 0 5.5-4.6 2.9-7-1.4-1.7-6.8-1-8.8-1.1v16.5h1.4v-8.5h2.7l6.4 8.5h1.7l-6.4-8.5Zm-4.5-1.4V329c2.3.2 7.3-.9 7.2 2.7 0 3.6-4.9 2.6-7.2 2.7Zm-16.7 6.6c1.2-2 1.1-4.9.6-6.8l-1.3.3c.3 1.3.6 4-.3 5.5l-5.6-5.3c3.5-1.5 4-7-.6-7.2-4.1.1-4.2 4.8-1.4 7-8.7 5.6 2 14.1 7.9 7.6l2.1 2h1.9l-3.3-3.1Zm-9.3-10.2c1-4.9 7.7-.3 1.8 3-.8-.8-1.8-1.8-1.8-3Zm3.3 12.3c-5.2 0-6-5.5-1.7-7.7l6 5.8c-.9 1.1-2.3 2-4.3 2Zm-16.7-.3v1.4H122v-16.5h1.4v15.1h7.7Zm-14.5 0v1.4h-9.2v-16.5h9v1.3h-7.6v5.4h6v1.3h-6v7.1h7.8Zm-14-15.1v1.3h-4.8v15.2h-1.4V329h-4.7v-1.3h10.8Zm-22-.2c-10.8 0-10.8 16.9 0 16.9s10.8-17 0-17Zm4.9 13.4c-4 4.6-12 1.2-11.7-5 0-3.9 2.8-7.1 6.8-7.1 6.2-.2 8.9 8 4.9 12.2ZM67 327.8v16.5h-1.4v-8.5H55v8.5h-1.4v-16.5H55v6.7h10.6v-6.7H67Zm300.6-22.4v.7H357v-.7c1.6 0 3.7.1 3.5-2l-.8-23-9.9 25.7h-.4l-10.1-24.5-.8 20.2c-.3 3.4 1.2 3.7 3.8 3.6v.7h-9.1v-.7c2.4.1 3.8-.3 3.9-3.7l.8-20.8c.2-2.3-1.9-2.8-3.4-2.8v-.8h7.3l9 22.5 8.6-22.4h7.4v.7c-1.5 0-3.5.5-3.4 2.8l.8 22.5c-.1 2.1 1.8 2 3.5 2Zm-35.7-28v.7c-2.4-.2-4 .4-3.8 3.5V295c.7 15.3-23 15.6-22.4.2V280c.2-2.1-1.9-2-3.5-2v-.7h10.6v.8c-1.6 0-3.7-.2-3.5 2v15.4c0 5.5 3.4 9.2 8.4 9.2 5.7 0 8.9-4 8.9-9.8v-13.3c.2-3.3-1.3-3.7-3.9-3.5v-.7h9.2Zm-9.2 0Zm-24.2 22.1v6.6h-22.3v-.7c1.6 0 3.6.2 3.5-2V280c.2-2.1-1.9-2-3.5-2v-.6h21v6h-.3c-.5-6.2-9-4.5-13.6-4.7V290c3.5-.4 9 1.6 9.8-3.6h.3v8.4h-.3c-.9-5.2-6.3-3.2-9.8-3.6v11.5c0 1.6 1 1.9 2.3 1.9 4.8-.2 11.8 1.4 12.5-5.2h.4Zm-24.4 5.9c-1.3 0-2.2-.8-2.7-2.1l-10.9-26.8h-.4l-10 24.5c-1.6 4-2.4 4.4-4.7 4.4v.7h8.4v-.7c-2.9 0-4-.2-2-4.9l2-4.7h10.6l3.2 7.8c.7 1.7-1.3 1.8-2.6 1.8v.7h10v-.7h-.9Zm-19.4-12 4.5-10.8 4.3 10.8h-8.8Zm-9.5-16v.7c-2.3-.2-3.9.4-3.8 3.5v25h-.3l-20.5-24.3v19.5c-.2 3.3 1.3 3.7 3.9 3.6v.7h-9.2v-.7c2.4.1 4-.5 3.8-3.6v-20.6c0-2.2-2.3-3-3.8-3v-.9h6.4l18.2 22.1v-17.8c.2-3.3-1.2-3.7-3.8-3.5v-.7h9.1ZM210 299.5v6.6h-22v-.7c1.6 0 3.7.1 3.5-2V280c.2-2.1-1.9-2-3.5-2v-.6h21v6h-.4c-.4-6.2-9-4.5-13.5-4.7V290c3.4-.4 9 1.6 9.7-3.6h.4v8.4h-.4c-.8-5.2-6.2-3.2-9.7-3.6v11.5c0 1.6 1 1.9 2.3 1.9 4.8-.2 11.8 1.4 12.5-5.2h.3ZM179 280v23.4c-.1 2.1 2 2 3.5 2v.7H172v-.8c1.6 0 3.7.2 3.5-1.9v-11.9h-15.3v12c-.2 2 1.9 1.9 3.5 1.8v.8H153v-.8c1.6 0 3.6.2 3.4-1.9V280c.2-2.1-1.8-2-3.4-2v-.7h10.6v.8c-1.6 0-3.7-.2-3.5 2v10h15.3v-10c.2-2.2-1.9-2-3.5-2v-.8h10.6v.8c-1.6 0-3.6-.2-3.4 2Zm-29.4-2.7v6.2h-.3c-.6-5.8-6.1-4.8-10.5-4.9V303c-.3 2.6 2.2 2.2 4.1 2.2v.8h-12v-.7c2 0 4.5.3 4.2-2.3v-24.4c-4.4 0-9.9-1-10.5 4.8h-.4v-6.1h25.4Zm-24.4 28c-1.5 0-2.3-.7-2.8-2l-10.9-26.8h-.4l-10 24.5c-1.6 4-2.4 4.4-4.7 4.4v.7h8.4v-.7c-2.9 0-4-.2-2-4.9l2-4.7h10.6l3.2 7.8c.7 1.7-1.3 1.8-2.6 1.7v.8h10v-.7h-.8Zm-19.5-12 4.5-10.7 4.3 10.8h-8.8Zm-21 6.2v6.6H62.5v-.7c1.6 0 3.7.1 3.5-2V280c.2-2.1-1.9-2-3.5-2v-.6h21v6H83c-.4-6.2-8.9-4.5-13.5-4.7V290c3.5-.4 9 1.6 9.8-3.6h.3v8.4h-.3c-.9-5.2-6.3-3.2-9.8-3.6v11.5c0 1.6 1 1.9 2.3 1.9 4.8-.2 11.8 1.4 12.5-5.2h.3ZM55.2 280v23.4c-.2 2.1 1.8 2 3.4 2v.7H48v-.8c1.7 0 3.7.2 3.5-1.9v-11.9H36.2v12c-.2 2 1.9 1.9 3.5 1.8v.8H29v-.8c1.6 0 3.7.2 3.5-1.9V280c.2-2.1-1.9-2-3.5-2v-.7h10.6v.8c-1.6 0-3.7-.2-3.5 2v10h15.3v-10c.2-2.2-1.8-2-3.4-2v-.8h10.5v.8c-1.6 0-3.6-.2-3.4 2Zm-29.4-2.7v6.2h-.4c-.5-5.8-6.1-4.8-10.5-4.9V303c-.3 2.6 2.2 2.2 4.2 2.2v.8H7v-.7c2 0 4.4.3 4.1-2.3v-24.4c-4.4 0-9.9-1-10.5 4.8H.4v-6.1h25.3ZM178.8.6Zm127.9 176.3c-2.8-42.7-41.7-52.6-73.5-50.3L179 .6l-24.5 54.9 27.5 71.1c-17.5-1.3-48 1.5-60.8 10.7-20.2 12-36.8 33.4-34.4 58.4a41 41 0 0 0 9.7 25.4c6.9 8 17.3 12.4 27.8 12 18.3.2 32.6-15.6 39.6-31-28.6 0-38.3-20-38.3-35.6.7-35.7 37.7-38.2 57.4-37.4l22 57.2c10.7 24 9.4 38.7-20.9 40.5v2.8h82.8a37 37 0 0 0 19.3-4.7c15.6-9.9 21.6-29.8 20.6-48Zm-21.8 45.6c-10.3-5.1-16.7-15.5-23-29.7l-27.6-63.7c27.3-1.9 65.1 5.5 69.9 45 2.5 18.6-4.5 40.4-19.3 48.4Z"/>
</svg>
